<svg width="521" height="510" viewBox="0 0 521 510" fill="none" xmlns="http://www.w3.org/2000/svg">
<path d="M261.682 479.26C379.088 479.26 474.265 384.186 474.265 266.906C474.265 149.626 379.088 54.5525 261.682 54.5525C144.275 54.5525 49.0981 149.626 49.0981 266.906C49.0981 384.186 144.275 479.26 261.682 479.26Z" fill="#8C32FF"/>
<path d="M357.602 437.384L183.877 437.297C178.626 437.297 174.338 433.013 174.338 427.767L174.513 94.331C174.513 89.0855 178.801 84.8018 184.052 84.8018L357.777 84.8892C363.029 84.8892 367.317 89.173 367.317 94.4184L367.142 427.855C367.142 433.1 362.854 437.384 357.602 437.384Z" fill="black"/>
<path d="M352.876 393.147L188.603 393.06C187.991 393.06 187.466 392.535 187.466 391.923L187.641 109.98C187.641 109.368 188.166 108.843 188.778 108.843L353.051 108.931C353.664 108.931 354.189 109.455 354.189 110.067L354.014 392.01C354.102 392.622 353.577 393.147 352.876 393.147Z" fill="white"/>
<path d="M296.339 99.839H240.677C238.927 99.839 237.526 98.4402 237.526 96.6917C237.526 94.9432 238.927 93.5444 240.677 93.5444H296.339C298.089 93.5444 299.49 94.9432 299.49 96.6917C299.577 98.4402 298.089 99.9264 296.339 99.839Z" fill="#CDEAFB"/>
<path d="M305.529 99.9261C303.778 99.9261 302.378 98.5273 302.378 96.7789C302.378 95.0304 303.778 93.6316 305.529 93.6316C307.279 93.6316 308.679 95.0304 308.679 96.7789C308.679 98.4399 307.279 99.9261 305.529 99.9261Z" fill="#CDEAFB"/>
<path d="M333.447 393.059H206.107V340.255C206.107 316.213 225.624 296.63 249.779 296.63H289.775C313.843 296.63 333.447 316.126 333.447 340.255V393.059V393.059Z" fill="#0E0E0E"/>
<path d="M269.733 430.914C278.579 430.914 285.749 423.752 285.749 414.916C285.749 406.08 278.579 398.917 269.733 398.917C260.888 398.917 253.718 406.08 253.718 414.916C253.718 423.752 260.888 430.914 269.733 430.914Z" fill="#CDEAFB"/>
<path d="M291.613 300.652L289.688 252.919L252.055 251.87L249.779 307.821C249.517 313.941 254.855 312.804 260.982 312.542L281.723 311.493C287.5 311.143 291.876 306.335 291.613 300.652Z" fill="#FACBB6"/>
<path d="M253.455 262.885L291 284.916L289.687 252.918L253.455 262.885Z" fill="#F6B7A0"/>
<path d="M334.584 218.91C334.584 226.691 328.283 232.986 320.494 232.986C312.704 232.986 306.403 226.691 306.403 218.91C306.403 211.13 312.704 204.835 320.494 204.835C328.283 204.835 334.584 211.13 334.584 218.91Z" fill="#FACBB6"/>
<path d="M223.261 232.986C231.043 232.986 237.351 226.684 237.351 218.91C237.351 211.137 231.043 204.835 223.261 204.835C215.479 204.835 209.17 211.137 209.17 218.91C209.17 226.684 215.479 232.986 223.261 232.986Z" fill="#FACBB6"/>
<path d="M315.681 193.732C315.681 211.654 313.055 227.128 310.517 238.144C307.979 248.897 300.803 256.415 290.738 262.448L288.9 263.497C278.135 269.966 264.482 270.141 253.542 263.934C242.602 257.727 234.988 249.509 232.625 237.969C228.337 216.987 227.899 193.732 227.899 193.732C227.899 193.732 223.786 148.446 271.134 149.321C318.481 150.282 315.681 193.732 315.681 193.732Z" fill="#FACBB6"/>
<path d="M230.437 212.179C230.437 212.179 240.414 180.007 233.15 159.2C233.238 159.2 205.319 167.155 230.437 212.179Z" fill="#01384F"/>
<path d="M313.93 212.179C313.93 212.179 301.327 180.007 308.591 159.2C308.504 159.2 334.585 165.582 313.93 212.179Z" fill="#01384F"/>
<path d="M235.251 173.625C235.251 173.625 243.215 159.2 257.568 167.155C271.921 175.111 286.099 182.717 311.742 176.422L308.329 159.112C308.329 159.112 272.709 121.258 232.975 159.112L235.251 173.625Z" fill="#01384F"/>
<path d="M232.975 159.112C232.975 159.112 235.251 132.885 272.359 130.612C309.467 128.339 320.406 148.097 320.406 148.097L313.667 149.321C313.667 149.321 326.62 154.916 330.033 160.336L322.769 162.871L332.396 171.439C332.396 171.439 302.115 183.154 285.399 176.859L271.483 155.877L232.975 159.112Z" fill="#01384F"/>
<path d="M256.168 296.019L240.502 296.281C240.502 296.281 238.839 316.126 269.383 317.088C299.927 318.049 300.452 297.505 300.452 297.505L283.911 296.019H256.168V296.019Z" fill="#FACBB6"/>
<path d="M325.395 271.453H212.321V158.588H325.395V271.453V271.453ZM213.808 270.054H323.907V159.987H213.808V270.054Z" fill="#2A94F4"/>
<mask id="mask0_409_10" style="mask-type:alpha" maskUnits="userSpaceOnUse" x="212" y="194" width="113" height="50">
<path d="M324.958 194.781H212.846V243.127H324.958V194.781Z" fill="url(#paint0_linear_409_10)"/>
</mask>
<g mask="url(#mask0_409_10)">
<path d="M324.958 194.781H212.846V243.127H324.958V194.781Z" fill="#8C32FF"/>
</g>
<defs>
<linearGradient id="paint0_linear_409_10" x1="268.848" y1="190.853" x2="268.848" y2="240.909" gradientUnits="userSpaceOnUse">
<stop stop-color="white"/>
<stop offset="1"/>
</linearGradient>
</defs>
</svg>
