<svg width="518" height="507" viewBox="0 0 518 507" fill="none" xmlns="http://www.w3.org/2000/svg">
<path d="M81.272 91.5394C120.777 37.8512 196.654 17.6637 261.741 51.5995C297.33 70.1337 321.781 104.679 358.067 122.43C398.964 142.269 445.256 159.063 474.145 196.044C504.861 235.375 511.3 291.065 492.244 336.922C468.924 392.698 407.578 401.313 353.629 420.543C132.785 499.204 -85.0136 413.06 55.9506 155.06C67.6106 133.568 68.3068 109.377 81.272 91.5394Z" fill="#8C32FF"/>
<path d="M387.043 86.7542C389.044 93.1933 391.045 99.7194 393.047 106.158C393.308 107.029 393.569 107.986 393.569 108.856C393.482 111.553 390.871 113.729 388.087 114.251C385.302 114.773 382.431 113.99 379.733 113.294C379.037 116.078 375.644 117.296 372.685 117.818C359.72 120.168 345.972 118.515 333.964 113.12C339.097 105.984 343.361 98.1531 346.407 89.9737C356.587 90.4088 366.768 90.8439 376.949 91.2789C378.776 91.3659 380.603 91.453 382.257 90.8439C383.91 90.2348 385.476 88.8425 385.563 87.1022" fill="#01384F"/>
<path d="M318.388 151.754C318.388 151.754 308.294 172.55 305.161 172.725C283.408 173.943 259.652 167.069 259.652 167.069L253.823 178.816C253.823 178.816 315.777 198.742 328.829 180.208C342.665 160.542 341.969 157.41 341.969 157.41L318.388 151.754Z" fill="#FACBB6"/>
<path d="M325.349 317.343C337.183 370.161 415.409 419.325 415.409 419.325L428.723 403.488C428.723 403.488 365.898 349.191 363.2 325.088C360.503 300.985 381.387 263.133 381.387 263.133L359.807 254.258L325.349 317.343Z" fill="#003340"/>
<path d="M351.801 124.692C352.149 122.517 351.279 113.38 351.279 113.38C351.279 113.38 342.665 112.51 342.143 104.244C341.621 95.9772 342.143 76.9209 342.143 76.9209L357.805 69.5247L375.034 82.1418L372.424 123.474L351.801 124.692Z" fill="#FACBB6"/>
<path d="M373.816 88.4941C373.816 88.4941 359.72 87.1889 357.283 74.8328L342.056 88.4941C342.056 88.4941 337.444 79.3576 345.884 70.8301C354.325 62.3026 360.155 64.0429 363.461 64.0429C366.594 64.0429 382.17 67.2625 386.869 84.4914C387.217 85.7097 387.478 88.8422 387.739 90.2344L373.816 88.4941Z" fill="#01384F"/>
<path d="M351.366 113.38C351.366 113.38 357.109 113.467 362.678 109.726C362.678 109.726 360.155 115.817 351.54 115.469L351.366 113.38Z" fill="#EEC0AE"/>
<path d="M333.615 217.885C333.615 220.844 334.66 224.934 334.66 224.934L395.135 241.815C395.135 241.815 399.486 215.362 388.435 200.569C383.388 193.782 384.519 184.298 386.608 176.118L393.743 148.273L384.258 122.169L346.146 124.692C346.146 124.692 324.044 122.604 316.386 150.797L330.57 171.419L330.744 179.164L333.615 217.885Z" fill="black"/>
<path d="M392.611 207.53C393.308 207.53 404.184 231.372 394.265 245.469C393.395 246.774 391.132 249.994 388 254.605C373.381 276.359 339.88 327.611 338.749 335.094C337.444 344.144 310.382 439.686 310.382 439.686L290.282 436.554L306.728 328.22L333.615 217.798L392.611 207.53Z" fill="#01384F"/>
<path d="M357.718 73.8758C357.718 73.8758 354.586 79.7058 355.891 84.1435L342.23 87.5371C342.23 87.5371 339.097 70.7432 357.718 73.8758Z" fill="#01384F"/>
<path d="M387.652 89.0162C387.652 89.0162 389.392 107.985 372.772 111.466L373.903 88.4941L387.652 89.0162Z" fill="#01384F"/>
<path d="M318.823 144.967L309.338 167.504L330.657 177.858L332.658 158.106L318.823 144.967Z" fill="black"/>
<path d="M377.906 122.604L374.338 118.427L358.763 122.169L360.677 126.694L377.906 122.604Z" fill="#F9B751"/>
<path d="M360.677 126.694L354.499 138.18L354.325 126.694L354.934 123.126H359.198L360.677 126.694Z" fill="#F6B69A"/>
<path d="M354.325 126.694L355.195 122.169L351.366 120.69L346.929 124.605L354.325 126.694Z" fill="#F9B751"/>
<path d="M330.57 178.206C330.57 178.206 330.918 177.684 330.831 176.727C330.744 175.683 330.135 174.291 328.917 172.986C327.785 171.68 326.132 170.288 325.697 168.113C325.523 167.069 325.523 165.937 325.958 164.806C326.306 163.675 327.089 162.718 328.133 162.022C329.091 161.326 330.222 160.978 331.353 160.891H331.701L331.788 160.542C332.397 156.192 333.18 152.363 333.441 149.579C333.702 146.794 333.441 145.054 333.354 145.141C333.267 145.141 333.267 146.794 332.832 149.579C332.484 152.363 331.614 156.105 330.918 160.455L331.353 160.107C330.048 160.194 328.743 160.629 327.698 161.413C326.48 162.196 325.61 163.414 325.175 164.632C324.74 165.85 324.653 167.243 324.914 168.374C325.175 169.592 325.784 170.636 326.48 171.419C327.176 172.202 327.872 172.899 328.482 173.508C329.7 174.726 330.309 175.944 330.483 176.901C330.657 177.684 330.483 178.206 330.57 178.206Z" fill="#F9B751"/>
<path d="M330.57 148.361C330.396 148.535 330.918 149.579 331.527 150.884C332.136 152.189 332.484 153.32 332.745 153.233C333.006 153.233 333.093 151.928 332.397 150.536C331.788 149.057 330.831 148.187 330.57 148.361Z" fill="#F9B751"/>
<path d="M308.642 167.591C308.555 167.852 313.341 170.462 319.519 173.16C325.697 175.944 330.918 177.772 331.005 177.511C331.092 177.25 326.045 175.074 319.867 172.29C313.776 169.592 308.729 167.33 308.642 167.591Z" fill="#F9B751"/>
<path d="M309.947 164.371C309.86 164.632 314.211 167.069 319.693 169.94C325.175 172.812 329.787 174.9 329.874 174.639C329.961 174.378 325.61 171.941 320.128 169.07C314.559 166.198 310.034 164.11 309.947 164.371Z" fill="#F9B751"/>
<path d="M338.575 149.056C338.575 149.317 339.88 149.578 341.447 149.665C343.1 149.752 344.405 149.665 344.405 149.404C344.405 149.143 343.1 148.882 341.534 148.795C339.967 148.708 338.575 148.795 338.575 149.056Z" fill="#F9B751"/>
<path d="M338.053 150.101C337.966 150.362 339.445 150.884 341.359 151.406C343.274 151.841 344.84 152.015 344.927 151.754C345.014 151.493 343.535 150.971 341.62 150.449C339.706 150.014 338.053 149.84 338.053 150.101Z" fill="#F9B751"/>
<path d="M288.455 436.641C288.455 436.641 270.791 441.253 275.141 442.558C279.579 443.863 310.208 440.644 310.208 440.644L311.253 437.25L288.455 436.641Z" fill="#004970"/>
<path d="M310.295 440.557L316.473 424.198H289.325L288.454 436.641L310.295 440.557Z" fill="#004970"/>
<path d="M415.583 420.456C415.583 420.456 411.146 437.685 414.452 434.552C417.759 431.42 429.767 403.923 429.767 403.923L427.243 401.4L415.583 420.456Z" fill="#004970"/>
<path d="M429.767 403.923L418.02 390.697L404.881 413.669L415.583 420.456L429.767 403.923Z" fill="#004970"/>
<path d="M356.5 68.4806C356.5 68.3936 354.847 68.3066 352.323 69.0027C349.8 69.6988 346.406 71.2651 343.622 74.1366C340.837 77.0081 339.445 80.4887 338.923 82.9251C338.401 85.4485 338.662 87.0148 338.749 87.0148C338.923 87.0148 338.923 85.4485 339.619 83.0991C340.228 80.7497 341.707 77.5302 344.318 74.7457C346.928 71.9612 350.148 70.3949 352.584 69.6118C354.934 68.7417 356.5 68.6546 356.5 68.4806Z" fill="#01384F"/>
<path d="M376.079 98.9361C375.992 97.5439 375.992 96.1516 376.514 94.8464C377.036 93.5412 378.167 92.41 379.559 92.323C381.213 92.149 382.779 93.4542 383.04 95.0204C383.301 96.5867 382.344 98.24 380.951 99.0231C379.559 99.8063 377.732 99.8063 376.253 99.1102" fill="#FACBB6"/>
<path d="M366.42 218.93C366.42 218.93 365.637 142.617 368.421 136.787C368.421 136.787 371.293 122.43 382.604 122.169L377.558 122.517C377.558 122.517 367.29 121.821 364.331 141.399C361.373 160.978 361.547 219.539 361.547 219.539L366.42 218.93Z" fill="#074559"/>
<path d="M344.492 221.627C344.492 221.627 341.446 133.916 343.796 124.692H340.75C340.75 124.692 338.053 132.263 338.575 153.233C338.923 165.85 338.575 221.627 338.575 221.627H344.492V221.627Z" fill="#074559"/>
<path d="M322.303 181.252C322.303 181.252 309.599 187.865 306.815 187.778C304.03 187.691 296.112 187.517 296.895 188.474C297.765 189.345 306.815 190.65 306.815 190.65L322.303 181.252Z" fill="#EDBFAE"/>
<path d="M323.173 195.174C323.173 195.174 383.388 208.401 391.654 186.995C400.443 164.284 400.53 170.201 400.53 170.201L381.648 155.322C381.648 155.322 371.467 181.513 368.682 182.122C352.846 185.429 334.833 183.34 328.568 182.383C327.872 181.861 327.002 181.339 326.045 180.556C325.262 179.947 324.566 179.164 324.044 178.381C323.435 177.423 322.651 176.118 322.564 175.248C322.39 174.204 320.824 173.856 320.215 174.726C319.693 175.509 320.041 178.381 322.216 181.165C322.216 181.165 307.859 188.735 306.728 190.563L323.173 195.174Z" fill="#EDBFAE"/>
<path d="M384.258 122.169C384.258 122.169 400.269 125.127 400.965 149.579C401.661 174.03 391.393 192.651 391.393 192.651L364.244 178.903L384.258 122.169Z" fill="black"/>
<path d="M364.245 179.077C364.158 179.164 365.811 179.86 368.334 181.078C370.858 182.209 374.338 183.776 378.167 185.69C381.909 187.604 385.302 189.432 387.739 190.824C390.175 192.216 391.654 193.086 391.741 192.912C391.828 192.825 390.436 191.781 388.087 190.215C385.737 188.735 382.431 186.734 378.602 184.82C374.773 182.905 371.206 181.426 368.595 180.382C365.985 179.425 364.332 178.99 364.245 179.077Z" fill="#F9B751"/>
<path d="M365.376 177.336C365.376 177.423 366.942 178.032 369.466 178.99C371.989 179.947 375.47 181.339 379.298 183.166C383.04 184.907 386.347 186.734 388.696 188.039C391.045 189.344 392.525 190.215 392.612 190.128C392.699 190.04 391.306 188.996 389.044 187.517C386.782 186.038 383.475 184.123 379.646 182.383C375.818 180.643 372.25 179.251 369.64 178.468C367.116 177.51 365.463 177.162 365.376 177.336Z" fill="#F9B751"/>
<path d="M373.207 151.058C373.468 151.058 373.903 149.056 373.729 146.446C373.555 143.836 372.685 141.921 372.424 142.008C372.163 142.095 372.511 144.097 372.772 146.533C372.946 148.969 372.859 150.971 373.207 151.058Z" fill="#F9B751"/>
<path d="M364.332 178.99C364.419 179.077 365.55 177.249 366.942 174.117C368.421 171.071 370.162 166.721 371.728 161.761C373.207 156.801 374.164 152.189 374.687 148.883C375.209 145.489 375.296 143.401 375.209 143.401C375.035 143.401 374.687 145.489 374.077 148.709C373.381 152.015 372.337 156.54 370.858 161.5C369.379 166.46 367.638 170.81 366.42 173.856C365.028 176.988 364.158 178.903 364.332 178.99Z" fill="#F9B751"/>
<path d="M214.753 239.378C215.536 240.074 216.928 239.639 217.537 238.682C218.147 237.812 218.147 236.681 218.234 235.549C218.408 223.976 217.624 212.229 215.449 200.917C213.535 205.703 214.927 213.187 214.927 218.407C214.84 225.456 214.84 232.417 214.753 239.378Z" fill="#9ED7EF"/>
<path d="M90.8436 244.512C90.4956 243.555 90.3216 242.598 90.5826 241.641C90.8436 240.684 91.8008 239.987 92.758 240.161C93.3671 240.336 93.8892 240.858 94.2372 241.38C95.3684 242.859 96.4126 244.425 97.3698 245.992C95.7165 243.294 94.6723 240.161 94.4983 237.029C94.4113 236.159 94.4983 235.202 95.1944 234.68C96.2386 233.983 97.6308 235.028 98.4139 236.072C99.6322 237.812 100.589 239.726 101.198 241.728C100.589 238.421 100.85 234.941 101.808 231.721C102.156 230.677 102.591 229.633 103.374 229.024C105.027 227.805 107.551 228.763 108.682 230.503C109.813 232.243 109.9 234.419 109.987 236.42C110.422 233.896 111.553 231.46 113.293 229.546C113.729 229.024 114.338 228.501 115.034 228.501C116.078 228.501 116.774 229.633 117.122 230.59C118.079 233.113 118.34 235.985 117.905 238.682C118.514 235.898 120.255 233.374 122.604 231.808C123.387 231.286 124.257 230.938 125.128 230.851C127.303 230.851 128.956 233.026 129.043 235.202C129.13 237.377 128.173 239.465 127.216 241.38C128.521 237.812 131.132 234.767 134.351 232.939C135.134 232.504 136.091 232.156 136.875 232.591C137.31 232.852 137.484 233.374 137.658 233.896C138.18 236.159 137.484 238.682 135.83 240.336C136.875 238.682 138.267 236.768 140.181 237.029C142.095 237.203 143.14 239.552 142.792 241.38C142.444 243.294 141.051 244.773 139.746 246.166C140.529 244.773 142.966 245.73 143.227 247.297C143.488 248.863 142.444 250.342 141.486 251.647C140.703 252.692 139.92 253.736 138.789 254.345C138.006 254.78 137.223 254.954 136.352 255.128C127.303 257.129 117.818 257.303 108.769 255.65C101.198 254.345 93.7151 253.04 90.8436 244.512Z" fill="#FED17A"/>
<path d="M91.7141 247.819C91.54 246.861 91.54 245.817 91.9751 244.947C92.8453 243.294 95.1947 242.859 96.935 243.468C98.6753 244.077 100.068 245.469 101.373 246.861C101.721 244.077 99.1974 241.205 100.503 238.769C100.851 238.073 101.547 237.551 102.243 237.203C105.985 235.288 111.292 238.247 111.64 242.424C112.25 239.987 113.033 237.377 115.208 236.159C116.948 235.201 119.385 235.636 120.69 237.116C121.995 238.595 122.169 241.031 120.951 242.685C123.3 240.335 126.433 238.856 129.74 238.508C130.436 238.421 131.132 238.421 131.741 238.682C134.003 239.552 134.09 242.772 133.742 245.208C133.742 243.381 135.744 241.989 137.571 242.424C139.311 242.859 140.616 244.599 140.791 246.339C140.965 248.167 140.355 249.994 139.398 251.473C138.615 252.691 137.658 253.823 136.266 254.258C135.57 254.519 134.786 254.519 134.003 254.519C125.65 254.693 117.296 254.954 108.856 254.693C102.939 254.606 93.1933 255.737 91.7141 247.819Z" fill="#5328AD"/>
<path d="M249.385 217.799C249.385 217.886 249.385 217.973 249.385 218.147C249.385 229.198 249.733 240.509 244.512 250.255C239.204 260.001 231.895 268.528 226.848 278.361C224.064 283.843 221.975 289.673 218.321 294.633C227.109 292.37 234.07 285.583 239.204 278.013C251.038 260.61 254.867 238.073 249.385 217.799Z" fill="#FED17A"/>
<path d="M212.491 206.835C211.272 230.851 207.531 254.78 207.879 278.796C207.966 284.452 208.314 290.369 210.924 295.416C216.928 275.664 223.019 255.302 221.279 234.68C220.757 228.067 219.365 221.627 218.582 215.101C217.537 206.487 218.146 189.258 210.489 183.341C212.316 191.259 212.926 198.655 212.491 206.835Z" fill="#FED17A"/>
<path d="M205.79 297.243C207.966 294.459 207.618 290.456 207.183 286.976C203.702 259.827 200.308 232.678 196.828 205.53C196.045 199.439 195.262 193.173 192.303 187.779C187.517 216.668 190.302 246.862 200.308 274.358C203.18 282.364 206.748 290.369 206.574 298.81C201.788 300.898 196.045 299.506 191.781 296.46C187.517 293.415 184.472 289.064 181.774 284.626C176.553 276.012 161.326 255.215 163.414 245.034C170.984 251.125 179.773 263.656 185.777 271.487C192.477 280.014 199.09 288.629 205.79 297.243Z" fill="#FED17A"/>
<path d="M191.955 187.169C192.999 222.584 194.652 258.957 209.097 291.239C216.058 254.78 222.845 216.058 209.88 181.252C234.157 212.317 236.855 258.608 216.493 292.37C227.718 283.408 237.638 272.618 243.99 259.74C250.342 246.861 252.952 231.895 249.559 217.972C257.999 239.378 255.215 264.874 242.424 284.017C235.027 295.068 223.193 304.465 209.88 303.943C195.784 303.334 184.646 292.022 175.944 280.884C167.852 270.529 160.195 257.738 163.327 244.947C170.549 257.042 174.204 271.313 183.515 281.928C187.865 286.975 197.785 295.764 204.572 294.633C202.397 286.627 195.175 278.622 191.955 270.53C188.387 261.741 186.038 252.43 184.82 243.033C182.383 224.238 184.646 204.746 191.955 187.169Z" fill="#5328AD"/>
<path d="M104.331 283.843H130.871C133.307 283.843 135.483 281.928 135.918 279.405L142.531 256.346H92.7582L99.3713 279.405C99.7194 281.928 101.895 283.843 104.331 283.843Z" fill="#004970"/>
<path d="M249.037 368.422H161.413V390.697H249.037V368.422Z" fill="#01384F"/>
<path d="M251.038 432.03H247.123V370.336H163.327V432.03H159.499V366.507H251.038V432.03Z" fill="#D9D9D9"/>
<path d="M249.037 440.992C249.037 440.992 240.858 441.514 249.037 428.026C257.216 441.079 249.037 440.992 249.037 440.992Z" fill="#C6C6C5"/>
<path d="M249.124 414.452H73.7889V418.281H249.124V414.452Z" fill="#D9D9D9"/>
<path d="M249.037 388.783H161.413V392.611H249.037V388.783Z" fill="#D9D9D9"/>
<path d="M248.602 361.373H161.413V375.557H248.602C252.517 375.557 255.65 372.424 255.65 368.508C255.65 364.506 252.517 361.373 248.602 361.373Z" fill="#2A94F4"/>
<path d="M161.413 290.978H73.7889V313.254H161.413V290.978Z" fill="#01384F"/>
<path d="M163.327 432.029H159.498V292.892H75.703V432.029H71.7874V289.064H163.327V432.029Z" fill="#D9D9D9"/>
<path d="M73.7887 440.992C73.7887 440.992 65.6093 441.514 73.7887 428.026C81.9681 441.079 73.7887 440.992 73.7887 440.992Z" fill="#C6C6C5"/>
<path d="M161.413 440.992C161.413 440.992 153.233 441.514 161.413 428.026C169.592 441.079 161.413 440.992 161.413 440.992Z" fill="#C6C6C5"/>
<path d="M161.413 311.34H73.7889V315.168H161.413V311.34Z" fill="#D9D9D9"/>
<path d="M74.9162 324.456L72.6029 327.506L160.24 393.96L162.554 390.91L74.9162 324.456Z" fill="#D9D9D9"/>
<path d="M160.233 324.45L72.5956 390.904L74.9089 393.954L162.546 327.5L160.233 324.45Z" fill="#D9D9D9"/>
<path d="M161.239 282.103H73.9628C70.0471 282.103 66.9146 285.235 66.9146 289.151C66.9146 293.066 70.0471 296.199 73.9628 296.199H161.239C165.154 296.199 168.287 293.066 168.287 289.151C168.287 285.235 165.154 282.103 161.239 282.103Z" fill="#2A94F4"/>
<path d="M191.781 360.764H229.284C232.765 360.764 235.81 358.066 236.42 354.412L245.817 299.941H175.335L184.733 354.412C185.342 358.066 188.3 360.764 191.781 360.764Z" fill="#004970"/>
<path d="M245.73 305.771H175.335C173.16 305.771 171.333 303.943 171.333 301.768V298.026C171.333 295.851 173.16 294.024 175.335 294.024H245.73C247.906 294.024 249.733 295.851 249.733 298.026V301.768C249.733 303.943 247.993 305.771 245.73 305.771Z" fill="#01384F"/>
<path d="M144.184 260.697H90.9307C89.2774 260.697 87.8851 259.305 87.8851 257.652V254.78C87.8851 253.127 89.2774 251.735 90.9307 251.735H144.184C145.837 251.735 147.229 253.127 147.229 254.78V257.652C147.229 259.305 145.837 260.697 144.184 260.697Z" fill="#01384F"/>
<path d="M255.128 183.776C250.604 180.643 244.773 180.73 239.988 183.253C233.549 186.734 230.59 193.782 232.504 200.83C232.765 201.701 231.895 202.484 231.025 202.223C228.415 201.614 226.152 199.96 223.455 199.264C220.496 198.481 217.277 198.916 214.666 200.569C214.579 201.092 214.579 201.614 214.753 202.136C214.753 202.31 214.84 202.484 214.927 202.658C216.494 202.136 218.147 201.614 219.626 202.136C220.844 202.571 221.715 203.528 222.585 204.485C227.022 209.445 231.634 214.318 236.159 219.278C238.595 221.888 242.163 222.845 245.557 221.888L260.262 217.45C263.656 216.406 265.918 213.622 266.614 210.402C266.875 209.01 266.788 207.531 266.353 206.051L262.176 192.303C260.523 188.909 258.174 185.864 255.128 183.776ZM244.251 184.646C252.866 182.035 257.043 191.955 257.043 191.955L235.985 198.394C235.985 198.394 233.2 188.039 244.251 184.646Z" fill="#2A94F4"/>
<path d="M266.44 210.315C265.831 213.535 263.482 216.319 260.088 217.363L245.383 221.801C241.989 222.845 238.421 221.801 235.985 219.191C231.46 214.231 226.848 209.358 222.411 204.398C221.54 203.441 220.67 202.397 219.452 202.049C217.973 201.527 216.233 202.049 214.753 202.571C214.666 202.397 214.579 202.223 214.579 202.049C214.666 201.962 214.666 201.962 214.753 201.962C217.364 200.483 221.105 201.353 223.542 202.745C226.674 204.572 228.937 207.531 231.112 210.402C233.2 213.274 235.463 216.319 238.421 218.234C239.291 218.843 240.336 219.278 241.38 219.539C242.685 219.8 244.077 219.626 245.383 219.452C249.298 218.756 253.127 217.537 256.868 216.406C259.74 215.536 262.698 214.492 264.7 212.23C265.483 211.707 265.918 211.011 266.44 210.315Z" fill="#23557D"/>
<path d="M260.871 167.243C257.825 166.808 254.78 166.373 251.734 166.025C249.994 165.764 248.254 165.59 246.6 165.938C242.511 166.895 240.161 171.071 238.247 174.813C236.855 177.598 235.636 181.426 237.551 183.689C239.204 182.644 241.292 182.035 243.12 181.513C243.642 181.339 245.121 180.382 245.817 180.121C247.383 181.6 244.86 185.255 247.47 185.951C254.345 181.6 262.089 175.857 262.263 167.678L260.871 167.243Z" fill="#FACBB6"/>
</svg>
