<svg width="27" height="25" viewBox="0 0 27 25" fill="none" xmlns="http://www.w3.org/2000/svg">
<path d="M25.9526 17.2944H5.7589C6.07837 16.6651 6.39904 16.0178 6.71971 15.3596C8.52121 15.5578 10.6326 14.3051 13.0442 11.6197C13.6447 13.2363 14.7796 15.3344 16.7169 15.3728C17.805 15.3945 18.8919 14.7483 20.01 13.4068C20.8255 14.382 22.5057 15.3728 25.9526 15.3728C26.2074 15.3728 26.4518 15.2716 26.632 15.0914C26.8121 14.9112 26.9134 14.6669 26.9134 14.412C26.9134 14.1572 26.8121 13.9128 26.632 13.7326C26.4518 13.5525 26.2074 13.4512 25.9526 13.4512C22.2979 13.4512 21.217 12.1962 21.1486 11.5164C21.1594 11.3102 21.1006 11.1064 20.9817 10.9376C20.8628 10.7688 20.6906 10.6448 20.4928 10.5856C20.2873 10.5239 20.0672 10.5315 19.8664 10.6072C19.6657 10.683 19.4954 10.8227 19.3819 11.0048C17.9323 13.2314 17.0543 13.4584 16.7493 13.4512C15.7573 13.432 14.7484 11.1069 14.4025 9.43748C14.3656 9.25868 14.2785 9.0941 14.1515 8.96301C14.0244 8.83191 13.8626 8.73974 13.6851 8.69727C13.5075 8.6548 13.3215 8.6638 13.1489 8.72321C12.9763 8.78263 12.8241 8.88999 12.7103 9.03274C10.2843 12.0761 8.65812 13.1005 7.64568 13.366C8.66533 11.0997 9.42677 9.10961 9.91437 7.43421C10.7335 4.61906 10.7935 2.65061 10.0957 1.41718C9.73542 0.771044 8.97399 0 7.44631 0C5.5175 0 3.99583 1.82312 3.27043 5.00218C2.83927 6.88895 2.76841 8.99071 3.07586 10.767C3.38332 12.5433 4.02105 13.8356 4.94823 14.603C4.50025 15.5302 4.04387 16.4357 3.5995 17.2944H0.971706C0.716885 17.2944 0.472501 17.3957 0.292316 17.5759C0.112131 17.756 0.0109036 18.0004 0.0109036 18.2552C0.0109036 18.5101 0.112131 18.7544 0.292316 18.9346C0.472501 19.1148 0.716885 19.216 0.971706 19.216H2.58225C1.22272 21.7382 0.165833 23.4964 0.149019 23.5252C0.0805201 23.6334 0.0343399 23.7542 0.0131925 23.8805C-0.00795496 24.0068 -0.00364286 24.1361 0.0258753 24.2607C0.0553935 24.3853 0.109522 24.5027 0.18508 24.6061C0.260637 24.7095 0.3561 24.7967 0.465855 24.8627C0.575611 24.9287 0.697446 24.972 0.824199 24.9902C0.950952 25.0084 1.08007 25.0011 1.20395 24.9687C1.32784 24.9363 1.44399 24.8795 1.5456 24.8015C1.6472 24.7236 1.7322 24.6261 1.79559 24.5149C1.81361 24.4836 3.14912 22.2582 4.76207 19.216H25.9526C26.2074 19.216 26.4518 19.1148 26.632 18.9346C26.8121 18.7544 26.9134 18.5101 26.9134 18.2552C26.9134 18.0004 26.8121 17.756 26.632 17.5759C26.4518 17.3957 26.2074 17.2944 25.9526 17.2944ZM5.14399 5.42973C5.62199 3.33158 6.54796 1.9216 7.44631 1.9216C8.08645 1.9216 8.29902 2.14499 8.42273 2.36237C8.78303 3.00251 9.20578 5.2676 5.82136 12.7378C4.82933 11.3831 4.49185 8.28692 5.14399 5.42973Z" fill="#8C32FF"/>
</svg>
