<svg width="25" height="25" viewBox="0 0 25 25" fill="none" xmlns="http://www.w3.org/2000/svg">
<path d="M5.55544 5.68921H16.6665V6.7993H5.55544V5.68921ZM5.55544 11.2397H11.1707V12.3498H5.55544V11.2397ZM16.2346 8.46444H5.55544V9.57454H15.1242L16.2346 8.46444ZM8.8846 20.1704C9.07132 20.3843 9.30829 20.5485 9.57422 20.6483C9.84016 20.7481 10.1267 20.7803 10.4082 20.7421H15.8277C15.9566 20.7421 16.0802 20.6909 16.1714 20.5998C16.2626 20.5088 16.3138 20.3852 16.3138 20.2564C16.3138 20.1276 16.2626 20.0041 16.1714 19.913C16.0802 19.8219 15.9566 19.7707 15.8277 19.7707H10.4082C9.77558 19.7596 9.88808 19.2108 9.97697 19.0409C10.0929 18.8414 10.1831 18.6281 10.2457 18.406C10.2872 18.2274 10.2677 18.04 10.1901 17.8737C10.1126 17.7075 9.98156 17.572 9.81794 17.4888C9.55506 17.3705 9.2606 17.3415 8.97966 17.4063C8.69872 17.4711 8.44677 17.626 8.26238 17.8475C8.02349 18.0938 7.69155 18.4706 7.37349 18.8369C7.57002 18.0674 7.82488 17.0802 8.07488 16.1172C8.14652 15.8977 8.13226 15.6593 8.03497 15.45C7.93768 15.2407 7.76459 15.0759 7.55058 14.989C7.31357 14.9078 7.05454 14.9194 6.82577 15.0215C6.59699 15.1236 6.41551 15.3086 6.31794 15.5392C6.01794 16.1158 3.64294 20.092 3.61933 20.1322C3.58659 20.187 3.56497 20.2476 3.55569 20.3108C3.54642 20.3739 3.54968 20.4382 3.56528 20.5C3.5968 20.6249 3.67669 20.7322 3.78738 20.7983C3.89807 20.8643 4.0305 20.8838 4.15552 20.8523C4.28055 20.8208 4.38793 20.741 4.45405 20.6304C4.54294 20.4812 6.43877 17.3084 7.03669 16.249C6.58669 17.9835 6.09086 19.9137 6.06169 20.0871C6.02886 20.2146 6.03871 20.3494 6.08975 20.4708C6.14079 20.5922 6.2302 20.6936 6.34433 20.7594C6.47145 20.8224 6.61594 20.8413 6.75501 20.8132C6.89408 20.785 7.01981 20.7115 7.11238 20.604C7.19988 20.5249 7.36377 20.3369 7.77697 19.8575C8.16194 19.4051 8.55624 18.9607 8.95961 18.5247C9.11099 18.3651 9.20266 18.4359 9.11377 18.5927C8.9399 18.8122 8.82713 19.0737 8.78689 19.3507C8.74665 19.6278 8.78036 19.9105 8.8846 20.1704Z" fill="#8C32FF"/>
<path d="M19.4445 15.0523V22.202H2.7778V2.77531H19.4445V6.2395L20.3681 5.31673C20.5103 5.17663 20.6661 5.05112 20.8334 4.94208V2.0815C20.8334 1.89749 20.7602 1.72102 20.63 1.59091C20.4997 1.46079 20.3231 1.3877 20.1389 1.3877H2.08336C1.89918 1.3877 1.72255 1.46079 1.59231 1.59091C1.46208 1.72102 1.38892 1.89749 1.38892 2.0815V22.8958C1.38892 23.0798 1.46208 23.2562 1.59231 23.3864C1.72255 23.5165 1.89918 23.5896 2.08336 23.5896H20.1389C20.3231 23.5896 20.4997 23.5165 20.63 23.3864C20.7602 23.2562 20.8334 23.0798 20.8334 22.8958V14.8663C20.4074 15.0918 19.9148 15.1578 19.4445 15.0523Z" fill="#8C32FF"/>
<path d="M23.7 8.22928L23.3368 7.86642C23.5225 7.62134 23.6164 7.31911 23.6025 7.01208C23.5885 6.70506 23.4675 6.41258 23.2604 6.18532C22.9916 5.94861 22.6401 5.82761 22.2824 5.84866C21.9247 5.86972 21.5898 6.03112 21.3507 6.29771L12.6528 14.9863L12.0716 17.1662C12.0624 17.1947 12.0612 17.2253 12.0683 17.2544C12.0754 17.2835 12.0904 17.3101 12.1117 17.3312C12.133 17.3523 12.1597 17.3671 12.1889 17.374C12.2181 17.3809 12.2486 17.3796 12.2771 17.3702L14.4514 16.7825L22.5709 8.67054L22.9139 9.01397C22.9379 9.03788 22.9569 9.06627 22.9698 9.09752C22.9828 9.12877 22.9895 9.16227 22.9895 9.1961C22.9895 9.22993 22.9828 9.26343 22.9698 9.29468C22.9569 9.32593 22.9379 9.35432 22.9139 9.37822L19.4993 12.7897C19.3952 12.8938 19.3367 13.0351 19.3368 13.1823C19.3368 13.3295 19.3954 13.4707 19.4997 13.5747C19.6039 13.6788 19.7453 13.7372 19.8926 13.7371C20.04 13.7371 20.1813 13.6785 20.2854 13.5744L23.7 10.1629C23.9567 9.90636 24.1008 9.55848 24.1008 9.19575C24.1008 8.83303 23.9567 8.48514 23.7 8.22858" fill="#8C32FF"/>
</svg>
