<svg width="188" height="44" viewBox="0 0 188 44" fill="none" xmlns="http://www.w3.org/2000/svg">
<path d="M30.0497 35V8.54667H40.4863C42.4841 8.54667 44.1891 8.90403 45.6013 9.61875C47.0222 10.3249 48.1028 11.3281 48.8434 12.6283C49.5926 13.92 49.9672 15.4399 49.9672 17.1879C49.9672 18.9446 49.5883 20.4558 48.8305 21.7217C48.0727 22.9789 46.9748 23.9433 45.5367 24.615C44.1073 25.2867 42.3765 25.6225 40.3442 25.6225H33.3563V21.1275H39.4401C40.5078 21.1275 41.3948 20.9811 42.1009 20.6883C42.807 20.3956 43.3323 19.9564 43.6767 19.3708C44.0298 18.7853 44.2063 18.0576 44.2063 17.1879C44.2063 16.3096 44.0298 15.569 43.6767 14.9663C43.3323 14.3635 42.8027 13.9071 42.088 13.5971C41.3819 13.2785 40.4906 13.1192 39.4142 13.1192H35.6426V35H30.0497ZM44.3355 22.9617L50.9101 35H44.7359L38.3034 22.9617H44.3355ZM62.5383 35.3875C60.4975 35.3875 58.7408 34.9742 57.2683 34.1475C55.8044 33.3122 54.6764 32.1325 53.8841 30.6083C53.0919 29.0756 52.6958 27.2629 52.6958 25.1704C52.6958 23.1296 53.0919 21.3385 53.8841 19.7971C54.6764 18.2557 55.7915 17.0544 57.2296 16.1933C58.6762 15.3322 60.3726 14.9017 62.3187 14.9017C63.6276 14.9017 64.8461 15.1126 65.9741 15.5346C67.1108 15.9479 68.1011 16.5722 68.945 17.4075C69.7975 18.2428 70.4605 19.2933 70.9341 20.5592C71.4077 21.8164 71.6446 23.2889 71.6446 24.9767V26.4879H54.8916V23.0779H66.465C66.465 22.2857 66.2927 21.5839 65.9483 20.9725C65.6039 20.3611 65.1259 19.8832 64.5146 19.5387C63.9118 19.1857 63.21 19.0092 62.4091 19.0092C61.5739 19.0092 60.8333 19.2029 60.1875 19.5904C59.5502 19.9693 59.0508 20.4817 58.6891 21.1275C58.3275 21.7647 58.1423 22.4751 58.1337 23.2587V26.5008C58.1337 27.4825 58.3146 28.3307 58.6762 29.0454C59.0465 29.7601 59.5675 30.3113 60.2391 30.6987C60.9108 31.0862 61.7073 31.28 62.6287 31.28C63.2401 31.28 63.7998 31.1939 64.3079 31.0217C64.8159 30.8494 65.2508 30.5911 65.6125 30.2467C65.9741 29.9022 66.2497 29.4803 66.4391 28.9808L71.5283 29.3167C71.27 30.5394 70.7404 31.6072 69.9396 32.52C69.1473 33.4242 68.1226 34.1303 66.8654 34.6383C65.6168 35.1378 64.1744 35.3875 62.5383 35.3875ZM85.7883 15.16V19.2933H73.8404V15.16H85.7883ZM76.5529 10.4067H82.0554V28.9033C82.0554 29.4114 82.1329 29.8075 82.2879 30.0917C82.4429 30.3672 82.6582 30.561 82.9337 30.6729C83.2179 30.7849 83.5451 30.8408 83.9154 30.8408C84.1737 30.8408 84.4321 30.8193 84.6904 30.7762C84.9487 30.7246 85.1468 30.6858 85.2846 30.66L86.15 34.7546C85.8744 34.8407 85.4869 34.9397 84.9875 35.0517C84.488 35.1722 83.8809 35.2454 83.1662 35.2713C81.8401 35.3229 80.6776 35.1464 79.6787 34.7417C78.6884 34.3369 77.9177 33.7083 77.3666 32.8558C76.8155 32.0033 76.5443 30.9269 76.5529 29.6267V10.4067ZM95.0302 35.3746C93.7643 35.3746 92.6363 35.155 91.646 34.7158C90.6557 34.2681 89.8721 33.6093 89.2952 32.7396C88.7268 31.8613 88.4427 30.7676 88.4427 29.4588C88.4427 28.3565 88.645 27.4308 89.0498 26.6817C89.4545 25.9325 90.0056 25.3297 90.7031 24.8733C91.4006 24.4169 92.1928 24.0725 93.0798 23.84C93.9753 23.6075 94.9139 23.4439 95.8956 23.3492C97.0495 23.2286 97.9795 23.1167 98.6856 23.0133C99.3917 22.9014 99.9041 22.7378 100.223 22.5225C100.541 22.3072 100.701 21.9886 100.701 21.5667V21.4892C100.701 20.6711 100.442 20.0382 99.9256 19.5904C99.4175 19.1426 98.6942 18.9187 97.7556 18.9187C96.7653 18.9187 95.9774 19.1383 95.3918 19.5775C94.8063 20.0081 94.4188 20.5506 94.2293 21.205L89.1402 20.7917C89.3985 19.5861 89.9066 18.5442 90.6643 17.6658C91.4221 16.7789 92.3995 16.0986 93.5964 15.625C94.802 15.1428 96.197 14.9017 97.7814 14.9017C98.8836 14.9017 99.9385 15.0308 100.946 15.2892C101.962 15.5475 102.862 15.9479 103.646 16.4904C104.438 17.0329 105.062 17.7304 105.519 18.5829C105.975 19.4268 106.203 20.4386 106.203 21.6183V35H100.985V32.2488H100.83C100.511 32.8688 100.085 33.4156 99.551 33.8892C99.0171 34.3542 98.3756 34.7201 97.6264 34.9871C96.8773 35.2454 96.0118 35.3746 95.0302 35.3746ZM96.606 31.5771C97.4155 31.5771 98.1302 31.4178 98.7502 31.0992C99.3702 30.7719 99.8567 30.3328 100.21 29.7817C100.563 29.2306 100.739 28.6062 100.739 27.9087V25.8033C100.567 25.9153 100.33 26.0186 100.029 26.1133C99.7361 26.1994 99.4046 26.2812 99.0343 26.3587C98.6641 26.4276 98.2938 26.4922 97.9235 26.5525C97.5532 26.6042 97.2174 26.6515 96.916 26.6946C96.2702 26.7893 95.7061 26.94 95.2239 27.1467C94.7417 27.3533 94.3671 27.6332 94.1002 27.9863C93.8332 28.3307 93.6998 28.7612 93.6998 29.2779C93.6998 30.0271 93.971 30.5997 94.5135 30.9958C95.0646 31.3833 95.7621 31.5771 96.606 31.5771ZM115.975 8.54667V35H110.472V8.54667H115.975Z" fill="#8C32FF"/>
<path d="M129.76 35H120.796V8.54667H129.941C132.567 8.54667 134.823 9.07625 136.709 10.1354C138.603 11.186 140.059 12.6972 141.075 14.6692C142.091 16.6411 142.599 19.0006 142.599 21.7475C142.599 24.5031 142.087 26.8711 141.062 28.8517C140.046 30.8322 138.578 32.3521 136.657 33.4112C134.746 34.4704 132.447 35 129.76 35ZM125.588 30.8537H129.527C131.37 30.8537 132.907 30.5179 134.139 29.8462C135.37 29.166 136.296 28.1542 136.916 26.8108C137.536 25.4589 137.846 23.7711 137.846 21.7475C137.846 19.7239 137.536 18.0447 136.916 16.71C136.296 15.3667 135.379 14.3635 134.164 13.7004C132.959 13.0288 131.461 12.6929 129.669 12.6929H125.588V30.8537ZM155.6 35.3875C153.662 35.3875 151.983 34.9612 150.562 34.1087C149.141 33.2562 148.039 32.0636 147.255 30.5308C146.48 28.9981 146.093 27.2069 146.093 25.1575C146.093 23.1081 146.48 21.3126 147.255 19.7712C148.039 18.2299 149.141 17.0329 150.562 16.1804C151.983 15.3279 153.662 14.9017 155.6 14.9017C157.537 14.9017 159.216 15.3279 160.637 16.1804C162.058 17.0329 163.156 18.2299 163.931 19.7712C164.715 21.3126 165.106 23.1081 165.106 25.1575C165.106 27.2069 164.715 28.9981 163.931 30.5308C163.156 32.0636 162.058 33.2562 160.637 34.1087C159.216 34.9612 157.537 35.3875 155.6 35.3875ZM155.625 31.6417C156.676 31.6417 157.554 31.3532 158.26 30.7762C158.967 30.1907 159.492 29.4071 159.836 28.4254C160.189 27.4438 160.366 26.3501 160.366 25.1446C160.366 23.9304 160.189 22.8325 159.836 21.8508C159.492 20.8606 158.967 20.0726 158.26 19.4871C157.554 18.9015 156.676 18.6087 155.625 18.6087C154.549 18.6087 153.654 18.9015 152.939 19.4871C152.233 20.0726 151.703 20.8606 151.35 21.8508C151.006 22.8325 150.833 23.9304 150.833 25.1446C150.833 26.3501 151.006 27.4438 151.35 28.4254C151.703 29.4071 152.233 30.1907 152.939 30.7762C153.654 31.3532 154.549 31.6417 155.625 31.6417ZM177.729 35.3875C175.749 35.3875 174.048 34.9526 172.627 34.0829C171.215 33.2132 170.126 32.0119 169.359 30.4792C168.601 28.9378 168.222 27.1639 168.222 25.1575C168.222 23.1425 168.61 21.3643 169.385 19.8229C170.16 18.2729 171.254 17.0674 172.666 16.2062C174.087 15.3365 175.766 14.9017 177.703 14.9017C179.314 14.9017 180.739 15.1988 181.979 15.7929C183.227 16.3785 184.222 17.2094 184.962 18.2858C185.703 19.3536 186.125 20.6022 186.228 22.0317H181.759C181.578 21.0758 181.148 20.2793 180.467 19.6421C179.796 18.9962 178.896 18.6733 177.768 18.6733C176.812 18.6733 175.972 18.9317 175.249 19.4483C174.526 19.9564 173.962 20.6883 173.557 21.6442C173.161 22.6 172.963 23.7453 172.963 25.08C172.963 26.4319 173.161 27.5944 173.557 28.5675C173.953 29.5319 174.509 30.2768 175.223 30.8021C175.947 31.3187 176.795 31.5771 177.768 31.5771C178.457 31.5771 179.072 31.4479 179.615 31.1896C180.166 30.9226 180.627 30.5394 180.997 30.04C181.367 29.5406 181.621 28.9335 181.759 28.2187H186.228C186.116 29.6224 185.703 30.8667 184.988 31.9517C184.274 33.0281 183.301 33.8719 182.069 34.4833C180.838 35.0861 179.391 35.3875 177.729 35.3875Z" fill="white"/>
<path d="M26.8874 14.2553L26.056 13.4246C26.4809 12.8636 26.6961 12.1717 26.6641 11.4688C26.6322 10.766 26.3552 10.0964 25.8811 9.57612C25.2657 9.03424 24.461 8.75724 23.6421 8.80543C22.8233 8.85362 22.0567 9.22311 21.5092 9.83343L1.59735 29.7239L0.266708 34.7144C0.245647 34.7797 0.243088 34.8495 0.259312 34.9162C0.275537 34.9829 0.309911 35.0437 0.358631 35.0921C0.40735 35.1404 0.468513 35.1744 0.535344 35.1901C0.602175 35.2059 0.672069 35.2028 0.737283 35.1814L5.71485 33.8361L24.3025 15.2655L25.0878 16.0517C25.1426 16.1064 25.1862 16.1714 25.2159 16.2429C25.2455 16.3145 25.2608 16.3912 25.2608 16.4686C25.2608 16.5461 25.2455 16.6227 25.2159 16.6943C25.1862 16.7658 25.1426 16.8308 25.0878 16.8855L17.2709 24.6953C17.0325 24.9337 16.8986 25.257 16.8987 25.594C16.8989 25.9311 17.0331 26.2543 17.2717 26.4925C17.5103 26.7307 17.8339 26.8644 18.1713 26.8643C18.5086 26.8641 18.8321 26.7301 19.0705 26.4917L26.8874 18.6819C27.475 18.0946 27.805 17.2982 27.805 16.4678C27.805 15.6374 27.475 14.841 26.8874 14.2537" fill="#8C32FF"/>
</svg>
