<svg width="122" height="28" viewBox="0 0 122 28" fill="none" xmlns="http://www.w3.org/2000/svg">
<path d="M19.2313 23V5.92894H25.9663C27.2556 5.92894 28.3558 6.15956 29.2672 6.62079C30.1841 7.07646 30.8815 7.72385 31.3594 8.56295C31.8429 9.3965 32.0846 10.3773 32.0846 11.5054C32.0846 12.639 31.8401 13.6143 31.3511 14.4311C30.862 15.2424 30.1535 15.8648 29.2255 16.2983C28.3031 16.7317 27.1861 16.9484 25.8746 16.9484H21.3652V14.0477H25.2912C25.9802 14.0477 26.5526 13.9532 27.0083 13.7643C27.4639 13.5754 27.8029 13.2919 28.0252 12.9141C28.253 12.5362 28.367 12.0666 28.367 11.5054C28.367 10.9386 28.253 10.4607 28.0252 10.0717C27.8029 9.68269 27.4612 9.38817 26.9999 9.18811C26.5443 8.98251 25.9691 8.8797 25.2745 8.8797H22.8405V23H19.2313ZM28.4503 15.2313L32.6931 23H28.7087L24.5576 15.2313H28.4503ZM40.1971 23.2501C38.8801 23.2501 37.7465 22.9833 36.7962 22.4499C35.8515 21.9108 35.1236 21.1495 34.6123 20.1659C34.1011 19.1768 33.8454 18.007 33.8454 16.6567C33.8454 15.3397 34.1011 14.1838 34.6123 13.1891C35.1236 12.1944 35.8432 11.4192 36.7712 10.8635C37.7048 10.3078 38.7995 10.03 40.0554 10.03C40.9 10.03 41.6864 10.1661 42.4143 10.4384C43.1478 10.7052 43.7869 11.1081 44.3315 11.6471C44.8816 12.1861 45.3095 12.8641 45.6151 13.6809C45.9208 14.4923 46.0736 15.4425 46.0736 16.5317V17.5069H35.2625V15.3064H42.7311C42.7311 14.7951 42.6199 14.3422 42.3976 13.9477C42.1754 13.5531 41.867 13.2447 41.4724 13.0224C41.0834 12.7946 40.6305 12.6807 40.1137 12.6807C39.5747 12.6807 39.0968 12.8057 38.68 13.0558C38.2688 13.3003 37.9465 13.6309 37.7131 14.0477C37.4797 14.4589 37.3602 14.9174 37.3547 15.4231V17.5153C37.3547 18.1488 37.4714 18.6961 37.7048 19.1573C37.9437 19.6186 38.2799 19.9742 38.7134 20.2243C39.1468 20.4744 39.6608 20.5994 40.2554 20.5994C40.65 20.5994 41.0112 20.5438 41.339 20.4327C41.6669 20.3215 41.9475 20.1548 42.1809 19.9325C42.4143 19.7103 42.5921 19.438 42.7144 19.1157L45.9986 19.3324C45.8319 20.1215 45.4901 20.8105 44.9733 21.3996C44.4621 21.9831 43.8008 22.4387 42.9895 22.7666C42.1837 23.0889 41.2529 23.2501 40.1971 23.2501ZM55.2009 10.1967V12.8641H47.4906V10.1967H55.2009ZM49.2411 7.12925H52.792V19.0657C52.792 19.3935 52.842 19.6491 52.942 19.8325C53.0421 20.0103 53.181 20.1354 53.3588 20.2076C53.5422 20.2799 53.7533 20.316 53.9923 20.316C54.159 20.316 54.3257 20.3021 54.4924 20.2743C54.6591 20.241 54.7869 20.216 54.8759 20.1993L55.4343 22.8416C55.2565 22.8972 55.0064 22.9611 54.6841 23.0333C54.3618 23.1111 53.9701 23.1584 53.5088 23.175C52.6531 23.2084 51.9029 23.0945 51.2583 22.8333C50.6192 22.5721 50.1219 22.1665 49.7662 21.6163C49.4106 21.0662 49.2355 20.3715 49.2411 19.5324V7.12925ZM61.165 23.2417C60.3481 23.2417 59.6201 23.1 58.9811 22.8166C58.342 22.5277 57.8363 22.1025 57.464 21.5413C57.0973 20.9745 56.9139 20.2687 56.9139 19.4241C56.9139 18.7128 57.0445 18.1154 57.3056 17.632C57.5668 17.1485 57.9225 16.7595 58.3726 16.465C58.8227 16.1705 59.3339 15.9482 59.9063 15.7981C60.4842 15.6481 61.09 15.5425 61.7235 15.4814C62.4681 15.4036 63.0682 15.3314 63.5239 15.2647C63.9796 15.1924 64.3102 15.0869 64.5158 14.9479C64.7214 14.809 64.8242 14.6034 64.8242 14.3311V14.2811C64.8242 13.7532 64.6575 13.3447 64.3241 13.0558C63.9963 12.7668 63.5295 12.6223 62.9238 12.6223C62.2847 12.6223 61.7762 12.764 61.3984 13.0474C61.0205 13.3253 60.7704 13.6754 60.6482 14.0977L57.364 13.831C57.5307 13.053 57.8586 12.3806 58.3476 11.8138C58.8366 11.2414 59.4673 10.8024 60.2397 10.4968C61.0177 10.1856 61.9179 10.03 62.9404 10.03C63.6517 10.03 64.3325 10.1134 64.9826 10.2801C65.6383 10.4468 66.2191 10.7052 66.7247 11.0553C67.236 11.4054 67.6389 11.8555 67.9334 12.4056C68.2279 12.9502 68.3752 13.6031 68.3752 14.3644V23H65.0076V21.2245H64.9076C64.702 21.6246 64.4269 21.9775 64.0824 22.2831C63.7379 22.5832 63.3239 22.8194 62.8404 22.9917C62.3569 23.1584 61.7985 23.2417 61.165 23.2417ZM62.1819 20.7911C62.7043 20.7911 63.1655 20.6883 63.5656 20.4827C63.9657 20.2715 64.2797 19.9881 64.5075 19.6325C64.7353 19.2768 64.8493 18.8739 64.8493 18.4238V17.0651C64.7381 17.1374 64.5853 17.2041 64.3908 17.2652C64.2019 17.3208 63.9879 17.3736 63.749 17.4236C63.51 17.468 63.2711 17.5097 63.0321 17.5486C62.7932 17.5819 62.5764 17.6125 62.382 17.6403C61.9652 17.7014 61.6012 17.7987 61.29 17.932C60.9788 18.0654 60.7371 18.246 60.5648 18.4738C60.3926 18.6961 60.3064 18.974 60.3064 19.3074C60.3064 19.7908 60.4815 20.1604 60.8316 20.416C61.1872 20.6661 61.6373 20.7911 62.1819 20.7911ZM74.6809 5.92894V23H71.13V5.92894H74.6809ZM83.577 23H77.7922V5.92894H83.6937C85.3886 5.92894 86.8445 6.2707 88.0615 6.95421C89.284 7.63216 90.2231 8.60741 90.8789 9.87996C91.5346 11.1525 91.8625 12.6751 91.8625 14.4478C91.8625 16.226 91.5318 17.7542 90.8705 19.0323C90.2148 20.3104 89.2673 21.2912 88.0281 21.9747C86.7945 22.6582 85.3108 23 83.577 23ZM80.8846 20.3243H83.4269C84.6161 20.3243 85.6081 20.1076 86.4027 19.6741C87.1974 19.2351 87.7947 18.5822 88.1948 17.7153C88.5949 16.8429 88.795 15.7537 88.795 14.4478C88.795 13.1419 88.5949 12.0583 88.1948 11.197C87.7947 10.3301 87.2029 9.68269 86.4194 9.2548C85.6414 8.82135 84.6745 8.60463 83.5186 8.60463H80.8846V20.3243ZM100.252 23.2501C99.0018 23.2501 97.9182 22.975 97.0013 22.4249C96.0844 21.8747 95.3731 21.1051 94.8674 20.1159C94.3673 19.1268 94.1172 17.9709 94.1172 16.6484C94.1172 15.3258 94.3673 14.1672 94.8674 13.1725C95.3731 12.1778 96.0844 11.4054 97.0013 10.8552C97.9182 10.3051 99.0018 10.03 100.252 10.03C101.502 10.03 102.586 10.3051 103.503 10.8552C104.42 11.4054 105.128 12.1778 105.628 13.1725C106.134 14.1672 106.387 15.3258 106.387 16.6484C106.387 17.9709 106.134 19.1268 105.628 20.1159C105.128 21.1051 104.42 21.8747 103.503 22.4249C102.586 22.975 101.502 23.2501 100.252 23.2501ZM100.269 20.8328C100.947 20.8328 101.514 20.6466 101.969 20.2743C102.425 19.8964 102.764 19.3907 102.986 18.7572C103.214 18.1237 103.328 17.418 103.328 16.64C103.328 15.8565 103.214 15.148 102.986 14.5145C102.764 13.8754 102.425 13.367 101.969 12.9891C101.514 12.6112 100.947 12.4223 100.269 12.4223C99.5742 12.4223 98.9962 12.6112 98.535 12.9891C98.0793 13.367 97.7376 13.8754 97.5097 14.5145C97.2875 15.148 97.1763 15.8565 97.1763 16.64C97.1763 17.418 97.2875 18.1237 97.5097 18.7572C97.7376 19.3907 98.0793 19.8964 98.535 20.2743C98.9962 20.6466 99.5742 20.8328 100.269 20.8328ZM114.533 23.2501C113.255 23.2501 112.157 22.9694 111.24 22.4082C110.329 21.8469 109.626 21.0717 109.131 20.0826C108.642 19.0879 108.398 17.9431 108.398 16.6484C108.398 15.348 108.648 14.2005 109.148 13.2058C109.648 12.2056 110.354 11.4276 111.265 10.8719C112.182 10.3106 113.266 10.03 114.516 10.03C115.555 10.03 116.475 10.2217 117.275 10.6051C118.081 10.983 118.723 11.5193 119.201 12.2139C119.679 12.903 119.951 13.7087 120.018 14.6312H117.134C117.017 14.0144 116.739 13.5003 116.3 13.0891C115.867 12.6723 115.286 12.464 114.558 12.464C113.941 12.464 113.399 12.6307 112.932 12.9641C112.466 13.2919 112.102 13.7643 111.84 14.3811C111.585 14.9979 111.457 15.737 111.457 16.5984C111.457 17.4708 111.585 18.221 111.84 18.8489C112.096 19.4713 112.455 19.952 112.916 20.291C113.383 20.6244 113.93 20.7911 114.558 20.7911C115.002 20.7911 115.4 20.7077 115.75 20.541C116.105 20.3688 116.403 20.1215 116.642 19.7992C116.881 19.4769 117.045 19.0851 117.134 18.6239H120.018C119.945 19.5297 119.679 20.3326 119.217 21.0328C118.756 21.7275 118.128 22.272 117.334 22.6666C116.539 23.0556 115.605 23.2501 114.533 23.2501Z" fill="#8C32FF"/>
<path d="M17.1906 9.19938L16.6541 8.66331C16.9283 8.30125 17.0671 7.85476 17.0465 7.40118C17.0259 6.94761 16.8472 6.51552 16.5412 6.17977C16.1441 5.83009 15.6248 5.65133 15.0964 5.68243C14.5679 5.71353 14.0732 5.95197 13.7199 6.34582L0.870267 19.1817L0.0115699 22.4022C-0.00202116 22.4443 -0.00367259 22.4894 0.00679729 22.5324C0.0172672 22.5754 0.0394502 22.6147 0.0708901 22.6459C0.10233 22.6771 0.1418 22.699 0.184928 22.7092C0.228056 22.7193 0.273161 22.7174 0.315244 22.7035L3.52741 21.8354L15.5225 9.85126L16.0293 10.3586C16.0647 10.3939 16.0928 10.4359 16.1119 10.4821C16.1311 10.5282 16.1409 10.5777 16.1409 10.6277C16.1409 10.6777 16.1311 10.7272 16.1119 10.7733C16.0928 10.8195 16.0647 10.8614 16.0293 10.8967L10.9848 15.9366C10.831 16.0905 10.7446 16.2991 10.7447 16.5166C10.7448 16.7341 10.8313 16.9426 10.9854 17.0964C11.1394 17.2501 11.3482 17.3364 11.5659 17.3363C11.7836 17.3362 11.9923 17.2497 12.1462 17.0958L17.1906 12.056C17.5698 11.677 17.7828 11.163 17.7828 10.6272C17.7828 10.0913 17.5698 9.57738 17.1906 9.19835" fill="#8C32FF"/>
</svg>
