<svg width="22" height="20" viewBox="0 0 22 20" fill="none" xmlns="http://www.w3.org/2000/svg">
<path d="M10 19.9998C8.61667 19.9998 7.31667 19.7371 6.1 19.2118C4.88334 18.6864 3.825 17.9741 2.925 17.0748C2.025 16.1754 1.31267 15.1171 0.788001 13.8998C0.263335 12.6824 0.000667932 11.3824 1.26582e-06 9.99976C-0.000665401 8.61709 0.262001 7.31709 0.788001 6.09975C1.314 4.88242 2.02633 3.82409 2.925 2.92476C3.82367 2.02542 4.882 1.31309 6.1 0.787756C7.318 0.262423 8.618 -0.000244141 10 -0.000244141C11.382 -0.000244141 12.682 0.262423 13.9 0.787756C15.118 1.31309 16.1763 2.02542 17.075 2.92476C17.9737 3.82409 18.6863 4.88242 19.213 6.09975C19.7397 7.31709 20.002 8.61709 20 9.99976C19.998 11.3824 19.7353 12.6824 19.212 13.8998C18.6887 15.1171 17.9763 16.1754 17.075 17.0748C16.1737 17.9741 15.1153 18.6868 13.9 19.2128C12.6847 19.7388 11.3847 20.0011 10 19.9998ZM10 17.9998C12.2333 17.9998 14.125 17.2248 15.675 15.6748C17.225 14.1248 18 12.2331 18 9.99976C18 7.76642 17.225 5.87475 15.675 4.32475C14.125 2.77475 12.2333 1.99976 10 1.99976C7.76667 1.99976 5.875 2.77475 4.325 4.32475C2.775 5.87475 2 7.76642 2 9.99976C2 12.2331 2.775 14.1248 4.325 15.6748C5.875 17.2248 7.76667 17.9998 10 17.9998Z" fill="#07E78F"/>
<path fill-rule="evenodd" clip-rule="evenodd" d="M21.174 3.68755C21.4746 3.36068 21.6382 2.92835 21.6304 2.48163C21.6226 2.03491 21.4441 1.6087 21.1323 1.29277C20.8205 0.976848 20.3998 0.795882 19.959 0.788C19.5181 0.780118 19.0914 0.945936 18.7688 1.25052L9.76079 10.3779L6.99259 7.57301C6.66999 7.26843 6.24331 7.10261 5.80244 7.11049C5.36156 7.11837 4.94092 7.29934 4.62913 7.61526C4.31733 7.93119 4.13874 8.35741 4.13096 8.80412C4.12318 9.25084 4.28683 9.68317 4.58743 10.01L8.55821 14.0334C8.87729 14.3564 9.30982 14.5377 9.76079 14.5377C10.2118 14.5377 10.6443 14.3564 10.9634 14.0334L21.174 3.68755Z" fill="#07E78F"/>
</svg>
