<svg width="24" height="21" viewBox="0 0 24 21" fill="none" xmlns="http://www.w3.org/2000/svg">
<path d="M16.3333 5.83333V2.33333H7V5.83333H4.66667V0H18.6667V5.83333H16.3333ZM18.6667 11.0833C18.9972 11.0833 19.2745 10.9713 19.4985 10.7473C19.7225 10.5233 19.8341 10.2464 19.8333 9.91667C19.8326 9.58689 19.7206 9.31 19.4973 9.086C19.2741 8.862 18.9972 8.75 18.6667 8.75C18.3361 8.75 18.0592 8.862 17.836 9.086C17.6128 9.31 17.5008 9.58689 17.5 9.91667C17.4992 10.2464 17.6112 10.5237 17.836 10.7485C18.0608 10.9733 18.3377 11.0849 18.6667 11.0833ZM16.3333 18.6667V14H7V18.6667H16.3333ZM18.6667 21H4.66667V16.3333H0V9.33333C0 8.34167 0.340278 7.51061 1.02083 6.84017C1.70139 6.16972 2.52778 5.83411 3.5 5.83333H19.8333C20.825 5.83333 21.6564 6.16894 22.3277 6.84017C22.9989 7.51139 23.3341 8.34244 23.3333 9.33333V16.3333H18.6667V21ZM21 14V9.33333C21 9.00278 20.888 8.72589 20.664 8.50267C20.44 8.27944 20.1631 8.16744 19.8333 8.16667H3.5C3.16944 8.16667 2.89256 8.27867 2.66933 8.50267C2.44611 8.72667 2.33411 9.00356 2.33333 9.33333V14H4.66667V11.6667H18.6667V14H21Z" fill="white"/>
</svg>
